<svg xmlns="http://www.w3.org/2000/svg" viewBox="0 0 1200 630" role="img" aria-label="영천중앙교회">
  <defs>
    <linearGradient id="bg" x1="0" x2="1200" y1="0" y2="630" gradientUnits="userSpaceOnUse">
      <stop stop-color="#F8FBFF"/>
      <stop offset="0.58" stop-color="#E9F1FC"/>
      <stop offset="1" stop-color="#D7E4F5"/>
    </linearGradient>
    <linearGradient id="sky" x1="256" x2="390" y1="180" y2="338" gradientUnits="userSpaceOnUse">
      <stop stop-color="#3C82E6"/>
      <stop offset="1" stop-color="#1F4C9C"/>
    </linearGradient>
    <linearGradient id="gold" x1="278" x2="378" y1="346" y2="250" gradientUnits="userSpaceOnUse">
      <stop stop-color="#E8C56B"/>
      <stop offset="1" stop-color="#C99634"/>
    </linearGradient>
  </defs>
  <rect width="1200" height="630" fill="url(#bg)"/>
  <path d="M0 500C178 429 349 433 520 491c207 71 418 70 680-39v178H0Z" fill="#FFFFFF" opacity="0.8"/>
  <path d="M0 546c237-60 431-41 611 4 194 48 373 38 589-42v122H0Z" fill="#2F6CCE" opacity="0.08"/>
  <g transform="translate(236 155) scale(2.2)">
    <rect width="96" height="96" rx="28" fill="#F8FBFF"/>
    <path d="M20 55c11.8 13.9 43.7 13.9 56 0-2.5 17.4-14.6 29-28 29S22.5 72.4 20 55Z" fill="url(#gold)"/>
    <path d="M48 12c15.9 11 27.3 27.5 28 43-12.3 8-43.7 8-56 0 .7-15.5 12.1-32 28-43Z" fill="url(#sky)"/>
    <path d="M43.5 27h9v17h16v8.5h-16V73h-9V52.5h-16V44h16V27Z" fill="#fff"/>
    <path d="M29 66.5c7.7 4.6 15.8 6.9 24.6 6.9 5.1 0 9.6-.7 13.4-2.2" fill="none" stroke="#FFF4CF" stroke-width="4" stroke-linecap="round"/>
  </g>
  <text x="500" y="280" fill="#1E2A45" font-family="Nanum Myeongjo, serif" font-size="86" font-weight="800">영천중앙교회</text>
  <text x="506" y="342" fill="#2F6CCE" font-family="Pretendard, Arial, sans-serif" font-size="27" font-weight="800" letter-spacing="7">YEONGCHEON CENTRAL CHURCH</text>
  <text x="506" y="408" fill="#586781" font-family="Pretendard, Arial, sans-serif" font-size="31" font-weight="600">삶의 소망을 주는 은혜로운 교회</text>
</svg>
